<svg xmlns="http://www.w3.org/2000/svg" viewBox="0 0 64 64" role="img" aria-label="AI Safe Charity Index logo">
  <path d="M18 28v-7c0-8 6-14 14-14s14 6 14 14v7" fill="none" stroke="#ffffff" stroke-width="6" stroke-linecap="round"/>
  <rect x="8" y="24" width="48" height="36" rx="8" fill="#ffffff"/>
  <path d="M20 50l8-18 8 18M23 44h10M42 32v18M38 32h8M38 50h8" fill="none" stroke="#0f766e" stroke-width="4.5" stroke-linecap="round" stroke-linejoin="round"/>
  <path d="M28 32v-6M42 32v-6M20 50v5M42 50v5" fill="none" stroke="#f2b705" stroke-width="3.5" stroke-linecap="round"/>
  <circle cx="28" cy="25" r="3" fill="#f2b705"/>
  <circle cx="42" cy="25" r="3" fill="#f2b705"/>
  <circle cx="20" cy="56" r="3" fill="#f2b705"/>
  <circle cx="42" cy="56" r="3" fill="#f2b705"/>
</svg>
